<?xml version="1.0" standalone="no"?>
<!DOCTYPE svg PUBLIC "-//W3C//DTD SVG 20010904//EN"
 "http://www.w3.org/TR/2001/REC-SVG-20010904/DTD/svg10.dtd">
<svg version="1.0" xmlns="http://www.w3.org/2000/svg"
 width="258.000000pt" height="292.000000pt" viewBox="0 0 258.000000 292.000000"
 preserveAspectRatio="xMidYMid meet">

<g transform="translate(0.000000,292.000000) scale(0.100000,-0.100000)"
fill="#7e22ce" stroke="none">
<path d="M70 1465 c0 -787 4 -1345 9 -1345 5 0 116 52 247 116 533 259 614
299 739 359 360 173 525 257 525 267 0 6 -17 32 -37 57 -60 73 -554 661 -556
661 -1 0 -2 -179 -2 -397 l0 -398 -173 -3 -172 -2 2 701 3 701 133 -1 c73 -1
139 -5 147 -8 8 -3 39 -35 67 -71 29 -37 157 -188 283 -337 127 -149 247 -292
268 -318 21 -26 42 -47 47 -47 11 0 4 860 -7 871 -4 4 -87 35 -183 69 -475
167 -574 202 -680 240 -63 23 -140 50 -170 60 -62 19 -275 96 -392 141 -43 16
-82 29 -88 29 -7 0 -10 -427 -10 -1345z"/>
<path d="M2335 2701 c-66 -26 -240 -94 -387 -151 -148 -57 -268 -106 -268
-110 0 -4 64 -30 143 -57 l142 -50 0 -779 0 -778 -142 -61 c-77 -33 -189 -80
-247 -104 -58 -24 -106 -47 -106 -51 0 -4 62 -29 138 -55 75 -26 297 -106 493
-176 196 -71 361 -129 368 -129 15 0 11 2542 -4 2546 -5 2 -64 -19 -130 -45z"/>
</g>
</svg>
